<svg 
  xmlns="http://www.w3.org/2000/svg" 
  xmlns:xlink="http://www.w3.org/1999/xlink" 
  preserveAspectRatio="xMidYMid meet" 
  version="1.0" 
  viewBox="-0.6 -0.7 740.4 204.4" 
  zoomAndPan="magnify" 
  style="fill: rgb(0, 0, 0);" 
  original_string_length="3316"
>
  <g id="__id7_ssf0uoohy">
    <path d="M296.159,2.328c22.775.36,45.525-1.7,68.29-1.019,38.694,1.166,77.4,1.444,116.1,1.9,7.307.086,14.614,1.072,21.928.726,13.8-.654,27.6-1.489,41.389-2.348C568.066.079,592.259-.66,616.5.759c18.512,1.084,36.948,2.659,55.18,6.138A107.4,107.4,0,0,1,704.612,18.5c16.363,9.208,26.725,22.806,31.241,41.029,3.959,15.979,3.235,31.886-.189,47.8a24.121,24.121,0,0,1-1.934,6.02c-3.625,6.988-5.177,14.58-7.2,22.1-4.115,15.289-13.1,27.544-25.735,36.912-14.5,10.747-30.977,16.943-48.723,19.924a469.227,469.227,0,0,1-80.109,6.061c-15.761-.073-31.489,1.387-47.217,2.453-1.46.1-2.923.2-4.385.207-24.882.135-49.745.936-74.6,1.984-18.59.785-37-1.047-55.39-3.554a215.548,215.548,0,0,0-48.635-1.6c-6.459.583-13,.342-19.508.286-17.413-.149-34.758,1.445-52.143,1.924q-27.566.759-55.136-.119c-15.434-.518-30.87-1.079-46.286-1.954a128.386,128.386,0,0,1-31.108-5.515,295.724,295.724,0,0,0-37.827-9.26c-6.872-1.186-13.861-1.679-20.786-2.572-20.961-2.7-40.358-9.388-57.741-21.783C6.847,148.607.853,134.319.082,117.442A75.724,75.724,0,0,1,11.3,74.187c4.52-7.515,8.49-15.329,14.7-21.749,14.42-14.91,31.815-23.708,52.276-27.066,14.926-2.45,29.961-3.852,44.937-5.8,15.137-1.97,30.216-4.387,45.344-6.43,11.59-1.566,23.218-2.838,34.826-4.271,8.382-1.036,16.755-2.15,25.138-3.182a400.706,400.706,0,0,1,52.513-3.367C286.074,2.365,291.117,2.328,296.159,2.328ZM5.894,119.3c.276,1.6.562,3.2.825,4.8,1.912,11.651,6.716,21.475,16.488,28.8A111.307,111.307,0,0,0,79.347,174.6a293.55,293.55,0,0,1,55.83,11,169.448,169.448,0,0,0,42.659,6.949c9.911.444,19.832.471,29.734,1.025,23.406,1.31,46.83,1.235,70.227.26,16.081-.671,32.146-1.646,48.249-1.622a94.12,94.12,0,0,0,13.035-.445c-20.069-1.089-40.281-1.838-60.464-3.243-17.033-1.185-34.127-1.3-51.2-1.081-13.509.176-26.985-.55-40.462-1.133-7.612-.329-15.218-1.16-22.79-2.221-15.122-2.12-30.17-4.685-45.213-7.283-21.944-3.789-43.617-8.72-64.739-15.846a93.632,93.632,0,0,1-30.2-16.5C15.9,137.737,9.9,129.685,7.638,119.192a8.226,8.226,0,0,0-1.525-4.447A8.713,8.713,0,0,0,5.894,119.3ZM387.467,193.23c.972.058,1.955.042,2.915.184,17.872,2.653,35.805,4.4,53.906,3.7,6.5-.252,12.989-.656,19.488-.809,17.879-.42,35.75-1.222,53.641-1.142,2.6.012,5.2-.214,7.794-.359,14.439-.8,28.875-2.218,43.318-2.292,25.719-.132,51.312-1.252,76.779-5.094,17.92-2.7,34.754-8.024,49.889-18.257,10.855-7.34,18.272-17.41,23.7-29.113.563-1.214,1.552-2.5.777-4.229a13.62,13.62,0,0,0-1.608,1.141c-19.041,18.16-41.693,29.631-67,36.2-26.775,6.95-53.989,11.385-81.463,14.421-26.526,2.932-53.082,4.722-79.781,3.143a48.565,48.565,0,0,0-5.841.194c-7.134.44-14.26,1.117-21.4,1.333-25.036.759-50.079-.361-75.119.136-1.366-.018-2.775-.458-4.118.423C384.691,193.688,386.1,193.25,387.467,193.23ZM169.208,18.949l.038.606c11.044,0,22.089.06,33.132-.011,38.685-.249,77.4,1.09,116.035-1.948,13.442-1.057,26.871-2.276,40.308-3.4q20.88-1.74,41.763-3.431c6.336-.516,12.674-1,19.011-1.494L419.459,8.2q-5.268,0-10.536,0c-23.09-.011-46.162-1.727-69.261-.837-21.781.839-43.57.917-65.362.944a374.633,374.633,0,0,0-44.233,3.129c-11.773,1.415-23.538,2.9-35.306,4.355Z" style="fill: rgb(203, 108, 230);"/>
  </g>
</svg>
